<?xml version="1.0" encoding="utf-8"?>
<svg xmlns="http://www.w3.org/2000/svg" style="margin: auto; background: none; display: block; shape-rendering: auto;" width="280" height="250" preserveAspectRatio="xMidYMid">
<style type="text/css">
  text {
    text-anchor: middle; font-size: 32px; opacity: 0;
  }
</style>
<g style="transform-origin: 140px 125px; transform: scale(0.4);">
<g transform="translate(140,125)">
  <g transform="translate(0,0)"><g class="path" style="transform: scale(0.91); transform-origin: -228.72px -6.42686px; animation: 1s linear -0.612857s infinite normal forwards running breath-cd858bd1-75fc-45e4-bde7-9f943c0e2568;"><path d="M1.68-54.24L1.68-56L43.28-56L44.08-39.36L42.64-39.36L42.64-39.36Q39.68-48 35.80-51.12L35.80-51.12L35.80-51.12Q31.92-54.24 24.24-54.24L24.24-54.24L22-54.24L22-28.24L25.60-28.24L25.60-28.24Q29.44-28.24 32-31.04L32-31.04L32-31.04Q34.56-33.84 35.52-38.72L35.52-38.72L36.72-38.72L36.72-15.04L35.36-15.04L35.36-15.04Q34.08-21.04 31.80-23.60L31.80-23.60L31.80-23.60Q29.52-26.16 25.60-26.16L25.60-26.16L22-26.16L22-1.76L31.92-1.76L31.92 0L1.68 0L1.68-1.76L6.40-1.76L6.40-54.24L1.68-54.24" fill="#290908" stroke="none" stroke-width="none" transform="translate(-251.60000610351562,21.57314293997628)" style="fill: rgb(41, 9, 8);"></path></g><g class="path" style="transform: scale(0.91); transform-origin: -188.026px 2.53314px; animation: 1s linear -0.565714s infinite normal forwards running breath-cd858bd1-75fc-45e4-bde7-9f943c0e2568;"><path d="M65.20 0.80L65.20 0.80Q54.88 0.80 49.72-4.52L49.72-4.52L49.72-4.52Q44.56-9.84 44.56-19.32L44.56-19.32L44.56-19.32Q44.56-28.80 50.36-33.84L50.36-33.84L50.36-33.84Q56.16-38.88 65.12-38.88L65.12-38.88L65.12-38.88Q83.28-38.88 82.56-20.64L82.56-20.64L60-20.64L60-17.52L60-17.52Q60-9.68 62-5.68L62-5.68L62-5.68Q64-1.68 68.96-1.68L68.96-1.68L68.96-1.68Q78.24-1.68 81.12-11.60L81.12-11.60L82.56-11.36L82.56-11.36Q81.04-5.60 77.08-2.40L77.08-2.40L77.08-2.40Q73.12 0.80 65.20 0.80L65.20 0.80zM60.08-26.16L60.08-22.24L68.32-22.24L68.32-26.16L68.32-26.16Q68.32-32.64 67.56-35L67.56-35L67.56-35Q66.80-37.36 64.52-37.36L64.52-37.36L64.52-37.36Q62.24-37.36 61.16-34.84L61.16-34.84L61.16-34.84Q60.08-32.32 60.08-26.16L60.08-26.16" fill="#290908" stroke="none" stroke-width="none" transform="translate(-251.60000610351562,21.57314293997628)" style="fill: rgb(73, 18, 18);"></path></g><g class="path" style="transform: scale(0.91); transform-origin: -151px -4.06686px; animation: 1s linear -0.518571s infinite normal forwards running breath-cd858bd1-75fc-45e4-bde7-9f943c0e2568;"><path d="M89.44-11.44L89.44-11.44L89.44-36.64L85.04-36.64L85.04-38.08L89.44-38.08L89.44-48.40L104.32-52.08L104.32-38.08L114.72-38.08L114.72-36.64L104.32-36.64L104.32-9.68L104.32-9.68Q104.32-5.92 105.08-4.16L105.08-4.16L105.08-4.16Q105.84-2.40 108.24-2.40L108.24-2.40L108.24-2.40Q110.64-2.40 112.44-4.80L112.44-4.80L112.44-4.80Q114.24-7.20 114.80-11.36L114.80-11.36L116.16-11.20L116.16-11.20Q115.52-5.68 112.64-2.44L112.64-2.44L112.64-2.44Q109.76 0.80 103.12 0.80L103.12 0.80L103.12 0.80Q96.48 0.80 92.96-1.84L92.96-1.84L92.96-1.84Q89.44-4.48 89.44-11.44" fill="#290908" stroke="none" stroke-width="none" transform="translate(-251.60000610351562,21.57314293997628)" style="fill: rgb(131, 26, 25);"></path></g><g class="path" style="transform: scale(0.91); transform-origin: -116.12px 2.53314px; animation: 1s linear -0.471429s infinite normal forwards running breath-cd858bd1-75fc-45e4-bde7-9f943c0e2568;"><path d="M139.36-37.44L139.36-37.44L139.36-37.44Q135.84-37.44 134.32-33.60L134.32-33.60L134.32-33.60Q132.80-29.76 132.80-20.88L132.80-20.88L132.80-16.72L132.80-16.72Q132.80-8.80 134.56-5.36L134.56-5.36L134.56-5.36Q136.32-1.92 141.04-1.92L141.04-1.92L141.04-1.92Q145.76-1.92 148.56-5.12L148.56-5.12L148.56-5.12Q151.36-8.32 152.16-12.40L152.16-12.40L153.60-12.24L153.60-12.24Q152.08-5.36 148-2.32L148-2.32L148-2.32Q143.84 0.80 136.56 0.80L136.56 0.80L136.56 0.80Q127.28 0.80 122.32-4.20L122.32-4.20L122.32-4.20Q117.36-9.20 117.36-18.84L117.36-18.84L117.36-18.84Q117.36-28.48 123-33.68L123-33.68L123-33.68Q128.64-38.88 138.72-38.88L138.72-38.88L138.72-38.88Q145.84-38.88 149.60-36.12L149.60-36.12L149.60-36.12Q153.36-33.36 153.36-29.20L153.36-29.20L153.36-29.20Q153.36-25.04 151.56-23.12L151.56-23.12L151.56-23.12Q149.76-21.20 146.60-21.20L146.60-21.20L146.60-21.20Q143.44-21.20 141.52-22.88L141.52-22.88L141.52-22.88Q139.60-24.56 139.60-27.84L139.60-27.84L139.60-27.84Q139.60-29.28 140-30.72L140-30.72L142.64-30.72L142.64-30.72Q143.20-32.32 143.20-33.60L143.20-33.60L143.20-33.60Q143.20-37.44 139.36-37.44" fill="#290908" stroke="none" stroke-width="none" transform="translate(-251.60000610351562,21.57314293997628)" style="fill: rgb(194, 66, 41);"></path></g><g class="path" style="transform: scale(0.91); transform-origin: -72.76px -8.42686px; animation: 1s linear -0.424286s infinite normal forwards running breath-cd858bd1-75fc-45e4-bde7-9f943c0e2568;"><path d="M154.80-58.56L154.80-60L174.08-60L174.08-30.72L174.08-30.72Q175.36-34.40 178-36.64L178-36.64L178-36.64Q180.64-38.88 186-38.88L186-38.88L186-38.88Q198.40-38.88 198.40-25.52L198.40-25.52L198.40-1.44L202.88-1.44L202.88 0L180.24 0L180.24-1.44L183.52-1.44L183.52-27.44L183.52-27.44Q183.52-32.24 182.88-33.64L182.88-33.64L182.88-33.64Q182.24-35.04 180.56-35.04L180.56-35.04L180.56-35.04Q178-35.04 176.04-31.68L176.04-31.68L176.04-31.68Q174.08-28.32 174.08-23.52L174.08-23.52L174.08-1.44L177.52-1.44L177.52 0L154.80 0L154.80-1.44L159.20-1.44L159.20-58.56L154.80-58.56" fill="#290908" stroke="none" stroke-width="none" transform="translate(-251.60000610351562,21.57314293997628)" style="fill: rgb(221, 132, 55);"></path></g><g class="path" style="transform: scale(0.91); transform-origin: -35.56px -29.4669px; animation: 1s linear -0.377143s infinite normal forwards running breath-cd858bd1-75fc-45e4-bde7-9f943c0e2568;"><path d="M215.84-43.60L215.84-43.60L215.84-43.60Q211.60-43.60 209.80-45.76L209.80-45.76L209.80-45.76Q208-47.92 208-51.12L208-51.12L208-51.12Q208-54.32 209.96-56.40L209.96-56.40L209.96-56.40Q211.92-58.48 215.92-58.48L215.92-58.48L215.92-58.48Q219.92-58.48 222-56.60L222-56.60L222-56.60Q224.08-54.72 224.08-51.24L224.08-51.24L224.08-51.24Q224.08-47.76 222.08-45.68L222.08-45.68L222.08-45.68Q220.08-43.60 215.84-43.60" fill="#290908" stroke="none" stroke-width="none" transform="translate(-251.60000610351562,21.57314293997628)" style="fill: rgb(238, 180, 64);"></path></g><g class="path" style="transform: scale(0.91); transform-origin: -35.8px 2.53314px; animation: 1s linear -0.33s infinite normal forwards running breath-cd858bd1-75fc-45e4-bde7-9f943c0e2568;"><path d="M203.76-36.64L203.76-38.08L223.36-38.08L223.36-1.44L227.84-1.44L227.84 0L204.08 0L204.08-1.44L208.48-1.44L208.48-36.64L203.76-36.64" fill="#290908" stroke="none" stroke-width="none" transform="translate(-251.60000610351562,21.57314293997628)" style="fill: rgb(216, 206, 167);"></path></g><g class="path" style="transform: scale(0.91); transform-origin: 2.03999px 2.13314px; animation: 1s linear -0.282857s infinite normal forwards running breath-cd858bd1-75fc-45e4-bde7-9f943c0e2568;"><path d="M229.60-36.64L229.60-38.08L248.88-38.08L248.88-30.72L248.88-30.72Q250.16-34.40 252.80-36.64L252.80-36.64L252.80-36.64Q255.44-38.88 260.80-38.88L260.80-38.88L260.80-38.88Q273.20-38.88 273.20-25.52L273.20-25.52L273.20-1.44L277.68-1.44L277.68 0L255.04 0L255.04-1.44L258.32-1.44L258.32-27.44L258.32-27.44Q258.32-32.24 257.68-33.64L257.68-33.64L257.68-33.64Q257.04-35.04 255.36-35.04L255.36-35.04L255.36-35.04Q252.80-35.04 250.84-31.68L250.84-31.68L250.84-31.68Q248.88-28.32 248.88-23.52L248.88-23.52L248.88-1.44L252.32-1.44L252.32 0L229.60 0L229.60-1.44L234-1.44L234-36.64L229.60-36.64" fill="#290908" stroke="none" stroke-width="none" transform="translate(-251.60000610351562,21.57314293997628)" style="fill: rgb(41, 9, 8);"></path></g><g class="path" style="transform: scale(0.91); transform-origin: 47.2px 6.93314px; animation: 1s linear -0.235714s infinite normal forwards running breath-cd858bd1-75fc-45e4-bde7-9f943c0e2568;"><path d="M310.80-42.24L310.80-42.24L313.04-43.60L313.04-43.60Q313.52-46.08 311.12-46.08L311.12-46.08L311.12-46.08Q307.68-46.08 307.68-40.80L307.68-40.80L307.68-40.80Q307.68-38.72 308.24-36L308.24-36L308.24-36Q314.32-31.92 314.32-25.56L314.32-25.56L314.32-25.56Q314.32-19.20 309.92-15.68L309.92-15.68L309.92-15.68Q305.52-12.16 298.00-12.16L298.00-12.16L298.00-12.16Q294.88-12.16 291.52-12.80L291.52-12.80L291.52-12.80Q288.00-10.56 288.00-9.44L288.00-9.44L288.00-9.44Q288.00-8.32 293.12-8.32L293.12-8.32L301.28-8.32L301.28-8.32Q319.44-8.32 319.44 4.72L319.44 4.72L319.44 4.72Q319.44 11.76 313.96 15.88L313.96 15.88L313.96 15.88Q308.48 20 296.88 20L296.88 20L296.88 20Q277.12 20 277.12 11.44L277.12 11.44L277.12 11.44Q277.12 6.80 283.28 5.04L283.28 5.04L288.08 7.20L288.08 7.20Q287.44 9.52 287.44 11.60L287.44 11.60L287.44 11.60Q287.44 18.48 297.68 18.48L297.68 18.48L297.68 18.48Q303.92 18.48 307.28 16.16L307.28 16.16L307.28 16.16Q310.64 13.84 310.64 10.40L310.64 10.40L310.64 10.40Q310.64 6.96 308.60 5.80L308.60 5.80L308.60 5.80Q306.56 4.64 300.48 4.64L300.48 4.64L292.72 4.64L292.72 4.64Q286.24 4.64 283.44 2.48L283.44 2.48L283.44 2.48Q280.64 0.32 280.64-2.84L280.64-2.84L280.64-2.84Q280.64-6 282.64-8.12L282.64-8.12L282.64-8.12Q284.64-10.24 289.76-13.36L289.76-13.36L289.76-13.36Q280.48-16 280.48-25.52L280.48-25.52L280.48-25.52Q280.48-31.52 284.80-35.20L284.80-35.20L284.80-35.20Q289.12-38.88 297.76-38.88L297.76-38.88L297.76-38.88Q302.96-38.88 306.64-36.88L306.64-36.88L306.64-36.88Q306.16-39.04 306.16-40.80L306.16-40.80L306.16-40.80Q306.16-45.28 308.56-47.28L308.56-47.28L308.56-47.28Q310.96-49.28 313.92-49.28L313.92-49.28L313.92-49.28Q316.88-49.28 318.68-47.72L318.68-47.72L318.68-47.72Q320.48-46.16 320.48-43.44L320.48-43.44L320.48-43.44Q320.48-40.72 319.04-39.40L319.04-39.40L319.04-39.40Q317.60-38.08 315.56-38.08L315.56-38.08L315.56-38.08Q313.52-38.08 312.20-39.16L312.20-39.16L312.20-39.16Q310.88-40.24 310.80-42.24zM293.84-27.28L293.84-27.28L293.84-22.96L293.84-22.96Q293.84-17.60 294.76-15.68L294.76-15.68L294.76-15.68Q295.68-13.76 297.56-13.76L297.56-13.76L297.56-13.76Q299.44-13.76 300.28-15.64L300.28-15.64L300.28-15.64Q301.12-17.52 301.12-23.36L301.12-23.36L301.12-27.28L301.12-27.28Q301.12-33.52 300.32-35.48L300.32-35.48L300.32-35.48Q299.52-37.44 297.64-37.44L297.64-37.44L297.64-37.44Q295.76-37.44 294.80-35.40L294.80-35.40L294.80-35.40Q293.84-33.36 293.84-27.28" fill="#290908" stroke="none" stroke-width="none" transform="translate(-251.60000610351562,21.57314293997628)" style="fill: rgb(73, 18, 18);"></path></g><g class="path" style="transform: scale(0.91); transform-origin: 112.4px 2.53314px; animation: 1s linear -0.188571s infinite normal forwards running breath-cd858bd1-75fc-45e4-bde7-9f943c0e2568;"><path d="M337.36-27.12L337.36-27.12L337.36-27.12Q337.36-41.12 344.44-49L344.44-49L344.44-49Q351.52-56.88 364.48-56.88L364.48-56.88L364.48-56.88Q377.44-56.88 384.04-49.40L384.04-49.40L384.04-49.40Q390.64-41.92 390.64-28.16L390.64-28.16L390.64-28.16Q390.64-2 367.92 0.08L367.92 0.08L367.92 0.64L367.92 0.64Q372.48 1.12 374.68 3.12L374.68 3.12L374.68 3.12Q376.88 5.12 378.00 8.44L378.00 8.44L378.00 8.44Q379.12 11.76 380.00 12.96L380.00 12.96L380.00 12.96Q380.88 14.16 382.64 14.16L382.64 14.16L382.64 14.16Q385.68 14.16 386.24 7.76L386.24 7.76L388.00 7.92L388.00 7.92Q387.84 13.20 384.72 16L384.72 16L384.72 16Q381.60 18.80 376.04 18.80L376.04 18.80L376.04 18.80Q370.48 18.80 367.44 16.04L367.44 16.04L367.44 16.04Q364.40 13.28 362.80 7.92L362.80 7.92L362.80 7.92Q361.76 4.64 361.04 3.68L361.04 3.68L361.04 3.68Q360.32 2.72 359.20 2.72L359.20 2.72L359.20 2.72Q356.96 2.72 353.28 6L353.28 6L352.16 4.72L352.16 4.72Q355.36 1.52 359.44 0.80L359.44 0.80L359.44 0.32L359.44 0.32Q348.56-0.80 342.96-7.92L342.96-7.92L342.96-7.92Q337.36-15.04 337.36-27.12zM374.16-24.72L374.16-24.72L374.16-30.64L374.16-30.64Q374.16-45.28 372.72-49.12L372.72-49.12L372.72-49.12Q371.12-53.52 368.16-54.56L368.16-54.56L368.16-54.56Q366.48-55.20 364.08-55.20L364.08-55.20L364.08-55.20Q361.68-55.20 359.96-54.56L359.96-54.56L359.96-54.56Q358.24-53.92 357.12-52.32L357.12-52.32L357.12-52.32Q356.00-50.72 355.32-48.96L355.32-48.96L355.32-48.96Q354.64-47.20 354.24-44L354.24-44L354.24-44Q353.76-39.36 353.76-30.32L353.76-30.32L353.76-24.56L353.76-24.56Q353.76-14.80 354.52-10.68L354.52-10.68L354.52-10.68Q355.28-6.56 356.40-4.80L356.40-4.80L356.40-4.80Q358.88-0.88 364.08-0.88L364.08-0.88L364.08-0.88Q370.40-0.88 372.28-6.20L372.28-6.20L372.28-6.20Q374.16-11.52 374.16-24.72" fill="#290908" stroke="none" stroke-width="none" transform="translate(-251.60000610351562,21.57314293997628)" style="fill: rgb(131, 26, 25);"></path></g><g class="path" style="transform: scale(0.91); transform-origin: 165.48px 2.93314px; animation: 1s linear -0.141429s infinite normal forwards running breath-cd858bd1-75fc-45e4-bde7-9f943c0e2568;"><path d="M440.72-1.44L440.72 0L422.48 0L421.60-5.84L421.60-5.84Q420.32-2.64 417.80-0.92L417.80-0.92L417.80-0.92Q415.28 0.80 410.32 0.80L410.32 0.80L410.32 0.80Q397.92 0.80 397.92-12.56L397.92-12.56L397.92-36.64L393.44-36.64L393.44-38.08L412.80-38.08L412.80-10.64L412.80-10.64Q412.80-5.84 413.48-4.32L413.48-4.32L413.48-4.32Q414.16-2.80 416.20-2.80L416.20-2.80L416.20-2.80Q418.24-2.80 419.84-5.28L419.84-5.28L419.84-5.28Q421.44-7.76 421.44-12.16L421.44-12.16L421.44-36.64L417.76-36.64L417.76-38.08L436.32-38.08L436.32-1.44L440.72-1.44" fill="#290908" stroke="none" stroke-width="none" transform="translate(-251.60000610351562,21.57314293997628)" style="fill: rgb(194, 66, 41);"></path></g><g class="path" style="transform: scale(0.91); transform-origin: 202.68px -29.4669px; animation: 1s linear -0.0942857s infinite normal forwards running breath-cd858bd1-75fc-45e4-bde7-9f943c0e2568;"><path d="M454.08-43.60L454.08-43.60L454.08-43.60Q449.84-43.60 448.04-45.76L448.04-45.76L448.04-45.76Q446.24-47.92 446.24-51.12L446.24-51.12L446.24-51.12Q446.24-54.32 448.20-56.40L448.20-56.40L448.20-56.40Q450.16-58.48 454.16-58.48L454.16-58.48L454.16-58.48Q458.16-58.48 460.24-56.60L460.24-56.60L460.24-56.60Q462.32-54.72 462.32-51.24L462.32-51.24L462.32-51.24Q462.32-47.76 460.32-45.68L460.32-45.68L460.32-45.68Q458.32-43.60 454.08-43.60" fill="#290908" stroke="none" stroke-width="none" transform="translate(-251.60000610351562,21.57314293997628)" style="fill: rgb(221, 132, 55);"></path></g><g class="path" style="transform: scale(0.91); transform-origin: 202.44px 2.53314px; animation: 1s linear -0.0471429s infinite normal forwards running breath-cd858bd1-75fc-45e4-bde7-9f943c0e2568;"><path d="M442.00-36.64L442.00-38.08L461.60-38.08L461.60-1.44L466.08-1.44L466.08 0L442.32 0L442.32-1.44L446.72-1.44L446.72-36.64L442.00-36.64" fill="#290908" stroke="none" stroke-width="none" transform="translate(-251.60000610351562,21.57314293997628)" style="fill: rgb(238, 180, 64);"></path></g><g class="path" style="transform: scale(0.91); transform-origin: 235.72px 2.53314px; animation: 1s linear 0s infinite normal forwards running breath-cd858bd1-75fc-45e4-bde7-9f943c0e2568;"><path d="M471.28-38.08L504.88-38.08L504.88-36.64L485.92-1.44L486.96-1.44L486.96-1.44Q493.68-1.44 497.52-4.96L497.52-4.96L497.52-4.96Q501.36-8.48 503.52-16.40L503.52-16.40L504.64-16.40L503.36 0L469.76 0L469.76-1.20L489.04-36.64L488.16-36.64L488.16-36.64Q480.08-36.64 476.92-34L476.92-34L476.92-34Q473.76-31.36 471.28-22.72L471.28-22.72L470.24-22.72L471.28-38.08" fill="#290908" stroke="none" stroke-width="none" transform="translate(-251.60000610351562,21.57314293997628)" style="fill: rgb(216, 206, 167);"></path></g></g>
</g>
</g>
<style id="breath-cd858bd1-75fc-45e4-bde7-9f943c0e2568" data-anikit="">@keyframes breath-cd858bd1-75fc-45e4-bde7-9f943c0e2568
{
  0% {
    animation-timing-function: cubic-bezier(0.9647,0.2413,-0.0705,0.7911);
    transform: scale(0.9099999999999999);
  }
  51% {
    animation-timing-function: cubic-bezier(0.9226,0.2631,-0.0308,0.7628);
    transform: scale(1.02994);
  }
  100% {
    transform: scale(0.9099999999999999);
  }
}</style></svg>